<?xml version="1.0" encoding="UTF-8"?>
<svg id="svg3842" xmlns="http://www.w3.org/2000/svg" xmlns:xlink="http://www.w3.org/1999/xlink" viewBox="0 0 399.26 403.56">
  <defs>
    <style>
      .cls-1 {
        fill: url(#linear-gradient);
      }

      .cls-1, .cls-2 {
        stroke-width: 0px;
      }
    </style>
    <linearGradient id="linear-gradient" x1="301.79" y1="323.5" x2="298.48" y2="-81.5" gradientTransform="translate(-100.42 322.85) scale(1 -1)" gradientUnits="userSpaceOnUse">
      <stop offset="0" stop-color="#bb3119"/>
      <stop offset="1" stop-color="#812112"/>
    </linearGradient>
  </defs>
  <g id="layer1">
    <path id="path3775" class="cls-1" d="m7.28,7.48s12.5,12.86,27.5-2.5l2.34,4.37,10.86.51,2.53,2.02,1.52-4.04,1.52.25,2.78,3.79,2.02-2.27,4.55.25,2.78,3.03,1.77-1.77,18.18.5,4.29-2.53.5,2.53,8.08,1.01,3.28-4.55s4.8,6.82,13.38,7.32c8.59.5,25.76-.5,25.76-.5,0,0,5.05,4.8,6.82,0,1.77-4.8,0-3.03,0-3.03l7.07-.25s2.27,1.26,4.55-8.59l2.53,5.3,1.26-5.56,7.83.76s3.54,2.78,6.06-3.54c0,0,19.19,8.08,27.53.25,0,0,5.3,4.55,14.14,3.79,8.84-.76,23.23,6.82,23.49,18.18,0,0,3.28-2.78,16.67-2.53-.25-1.77,7.32-7.83,0-12.63,0,0,6.06-5.56,77.02,2.02,0,0,3.79-.25.76-5.3-3.03-5.05,4.8-2.78,3.03-3.03,0,0,2.27,15.66,10.86,6.06,0,0,19.7,9.34,19.95.76l3.79,2.27,10.86.25s-1.26,5.3,11.11,7.83c0,0,4.54,20.46-1.52,23.74,0,0,7.58,36.11,2.27,99.25l-11.62.25,4.54,11.62s-11.62,3.54-5.3,14.65c0,0,6.06-2.53,1.77,1.77,0,0-1.01,4.54,5.56,5.81,0,0-3.79,15.66,4.04,15.15,0,0-6.06,14.14-1.52,17.43,0,0-3.54,6.57-2.27,18.18,0,0-1.77,2.02-5.05-.76,0,0-6.57,5.81,10.61,4.04l1.51,163.39s-32.32-18.69-44.7-6.31l15.15,1.26-1.01,2.02-6.57.25s.25,7.32-4.8.5c0,0-12.12,11.36-34.6.25,0,0-10.86,4.54-19.7-2.27,0,0-6.06-1.26-7.32,4.8,0,0-9.6-1.77-22.98,2.27l1.01-3.54h-1.77l-.25,4.29s-2.02,1.77-4.8.76l1.77-6.06s-4.04-1.26-5.56,2.53l3.28-.76-1.01,4.29s-7.83,7.83-17.42,1.51l9.85-.76s1.77-1.26,1.52-3.03c0,0-38.64-.5-37.38,2.53l3.03,2.27s-12.88,4.8-18.69.76l-.25-3.79-2.02.25-3.28,4.8s-5.56-9.85-22.73-4.29l1.26,4.29s-6.06-.5-8.33,2.27l-9.6-15.66s-14.14,6.57-21.21-1.01c0,0-1.26.25-1.77,3.79,0,0-5.81-.25-8.59-9.09,0,0-4.55,1.26-2.78,9.09,0,0-4.8-5.3-5.05-8.33l-3.54,3.79,2.53,3.03-1.26,1.51s-5.3-5.56-7.58-4.29l.25,3.28-2.27.76-3.03-4.55s-3.28,1.77-3.54,4.29l-1.26-1.77-1.77,1.26h-2.27s-.76-5.05-2.02-5.81l-1.26,3.28h-4.55v-3.03l-4.29,3.03s-5.05-.76-6.06,4.04l-2.78-1.26s.5-5.3-1.52-7.58c0,0-2.78-1.26-3.28,5.3,0,0-3.28,1.26-4.29-3.54h-2.27l.5,6.31s-1.26-4.55-11.62-3.28c0,0-11.87.76-13.38-3.28l-1.01,6.31s-.76-5.56-11.87-.5l-2.53-.25.25-3.28h-1.52l-1.01,5.56-2.53-.51s2.53-4.29-.25-5.3c0,0-4.04,1.01-4.55,5.05l-2.53-1.26.25-5.56-11.62-1.77s7.58-13.64,2.02-58.59c0,0,.25-15.66,2.78-19.7l6.06-.25,1.77-42.93-7.83-1.26s-3.54-15.91-1.52-51.77c0,0,1.26-.76,4.8,2.27l1.01-1.77-3.54-2.02.25-3.79,6.82,3.79.5-15.15s-13.89-6.31-5.05-28.79c0,0-12.37-38.89-3.79-129.55l-2.27-1.26s-.76,6.06-4.55.25L.76,11.36l4.55.5-.5,1.52-1.77.5.76,9.34,1.52.25,1.98-16.01Z"/>
    <path id="path3800" class="cls-2" d="m46.97,81.32l96.97,103.54s7.32-1.01,9.6,4.8c2.27,5.81-1.52.76-1.52.76l-3.03-2.27,39.14,42.43s-4.8-13.13,1.52-1.26c6.31,11.87,16.41,20.46,16.41,20.46l1.52-2.27-5.81-6.57s-4.29-5.05,1.77-1.77l7.58,9.85s-1.77,5.56,4.04,10.35l-1.26-4.04s5.05,2.78,9.34,11.36l-.25-3.28,4.29,4.04-1.77,2.27,40.41,43.18s9.34,22.22,59.85,18.94c0,0,23.99-30.56,26.01-76.27l-33.33-22.48-19.45-1.77.25-3.28,7.32,3.03,2.53.25-4.29-3.54,2.02-2.27-160.36-109.1s-10.1.51-9.6-6.06l-4.04-.25-2.27-2.27-2.27,1.77-1.26-1.26,1.52-2.53-6.31-3.54,3.03,3.79-1.52.76-6.57-6.57,1.52-1.77-29.8-20.96s-13.64-14.65-41.92,3.79h0Z"/>
    <path id="path3802" class="cls-2" d="m77.66,242.94l78.79,76.14-55.81,17.93-3.41-2.15s-1.14,4.8-6.19,1.39c0,0,2.15,3.66,4.42-2.65,0,0-.88-2.02-2.15,0l-.88,1.89-.25-3.66-2.27,1.51-1.77-.25-.38,3.28-33.33-24.75s-4.8-1.77-1.01-13.26c3.79-11.49,24.24-55.43,24.24-55.43Z"/>
    <path id="path3804" class="cls-2" d="m315.42,145.08l8.08-51.9-2.27.13.25,2.02s-1.01,4.42-2.02.51c-1.01-3.91,1.26-5.05,1.26-5.05l2.65.76.13-1.64-17.55-12.88s-6.19-4.67-18.44-.76c-12.25,3.91-50.25,13.51-50.25,13.51l66.29,50.89.88-1.77-3.16-1.52s-2.15-2.65,1.89-2.53c4.04.13,3.03,7.7,3.03,7.7h3.79l2.15,2.78,3.28-.25Z"/>
  </g>
</svg>